<svg width="602" height="701" viewBox="0 0 602 701" fill="none" xmlns="http://www.w3.org/2000/svg">
<path d="M579.499 0.388229C583.149 -0.388009 586.934 0.00570088 590.374 1.51811C593.814 3.03057 596.755 5.59448 598.824 8.8853C600.894 12.1762 601.999 16.0463 602 20.0054V531.963C602 553.19 594.072 573.548 579.96 588.558C565.848 603.568 546.707 612.001 526.75 612.001L302.5 700.501L301 699.916L299.5 700.501L75.25 612.001C74.9383 612.001 74.6267 611.998 74.3154 611.994C54.6959 611.735 35.9317 603.333 22.04 588.558C7.92807 573.548 0.000164957 553.19 0 531.963V20.0054C0.000790664 16.0463 1.10633 12.1762 3.17578 8.8853C5.24526 5.59448 8.186 3.03057 11.626 1.51811C15.0661 0.00570088 18.8509 -0.388009 22.501 0.388229C26.1511 1.16452 29.503 3.07542 32.1318 5.87846L139.476 120.052C146.53 127.558 156.099 131.775 166.077 131.777H435.923C445.901 131.775 455.47 127.558 462.524 120.052L569.868 5.87846C572.497 3.07542 575.849 1.16452 579.499 0.388229ZM169 223C137.52 223 112 248.519 112 280V421C112 452.48 137.52 478 169 478C200.48 478 226 452.48 226 421V280C226 248.519 200.48 223 169 223ZM433 223C401.52 223 376 248.519 376 280V421C376 452.48 401.52 478 433 478C464.48 478 490 452.48 490 421V280C490 248.519 464.48 223 433 223Z" fill="white"/>
</svg>
