<svg width="50" height="59" viewBox="0 0 50 59" fill="none" xmlns="http://www.w3.org/2000/svg">
<path d="M48.1309 0.0322266C48.4339 -0.0322317 48.7485 0.000447856 49.0342 0.125977C49.3198 0.251605 49.5645 0.465003 49.7363 0.738281C49.908 1.01151 49.9999 1.33347 50 1.66211V44.1836C49.9998 45.9463 49.3408 47.6373 48.1689 48.8838C46.9969 50.1301 45.4074 50.8311 43.75 50.8311L25.125 58.1816L25 58.1328L24.875 58.1816L6.25 50.8311C6.14652 50.8311 6.0433 50.8277 5.94043 50.8223C4.39578 50.7408 2.92992 50.0523 1.83105 48.8838C0.659165 47.6373 0.000239421 45.9463 0 44.1836V1.66211C6.5631e-05 1.33347 0.0919871 1.01151 0.263672 0.738281C0.435526 0.465003 0.68017 0.251605 0.96582 0.125977C1.25148 0.000447856 1.56606 -0.0322317 1.86914 0.0322266C2.17219 0.0967478 2.45068 0.255545 2.66895 0.488281L11.584 9.97168C12.1699 10.5949 12.9653 10.9451 13.7939 10.9453H36.2061C37.0347 10.9451 37.8301 10.5949 38.416 9.97168L47.3311 0.488281C47.5493 0.255545 47.8278 0.0967478 48.1309 0.0322266ZM14.0361 18.5215C11.4217 18.5217 9.30273 20.6413 9.30273 23.2559V34.9668C9.30293 37.5811 11.4218 39.7 14.0361 39.7002C16.6506 39.7002 18.7703 37.5813 18.7705 34.9668V23.2559C18.7705 20.6412 16.6508 18.5215 14.0361 18.5215ZM35.9639 18.5215C33.3492 18.5215 31.2295 20.6412 31.2295 23.2559V34.9668C31.2297 37.5813 33.3493 39.7002 35.9639 39.7002C38.5782 39.7 40.6971 37.5811 40.6973 34.9668V23.2559C40.6973 20.6413 38.5783 18.5217 35.9639 18.5215Z" fill="url(#paint0_linear_207_782)"/>
<defs>
<linearGradient id="paint0_linear_207_782" x1="25" y1="0" x2="25" y2="58.1817" gradientUnits="userSpaceOnUse">
<stop stop-color="#FF9500"/>
<stop offset="1" stop-color="#FFB700"/>
</linearGradient>
</defs>
</svg>
