<svg width="100" height="117" viewBox="0 0 100 117" fill="none" xmlns="http://www.w3.org/2000/svg">
<path d="M96.2627 0.0643998C96.8687 -0.0643795 97.4972 0.000911287 98.0684 0.2519C98.6398 0.503133 99.1289 0.929854 99.4727 1.47651C99.8163 2.02306 99.9998 2.66571 100 3.32319V88.3652C99.9999 91.891 98.6829 95.2724 96.3389 97.7656C93.9947 100.259 90.8152 101.66 87.5 101.66L50.249 116.36L50 116.263L49.751 116.36L12.5 101.66C12.3963 101.66 12.2928 101.658 12.1895 101.655C8.98681 101.571 5.93204 100.181 3.66113 97.7656C1.3171 95.2724 0.000114064 91.891 0 88.3652V3.32319C0.00015191 2.66571 0.183737 2.02306 0.527344 1.47651C0.871119 0.929854 1.3602 0.503133 1.93164 0.2519C2.50281 0.000911287 3.13128 -0.0643795 3.7373 0.0643998C4.34364 0.193353 4.90121 0.510879 5.33789 0.976509L23.1689 19.9423C24.3407 21.1889 25.9305 21.8892 27.5879 21.8896H72.4121C74.0695 21.8892 75.6593 21.1889 76.8311 19.9423L94.6621 0.976509C95.0988 0.510879 95.6564 0.193353 96.2627 0.0643998ZM28.0732 37.0429C22.844 37.0429 18.6045 41.2824 18.6045 46.5117V69.9326C18.6045 75.1618 22.844 79.4013 28.0732 79.4013C33.3023 79.4011 37.541 75.1617 37.541 69.9326V46.5117C37.541 41.2825 33.3024 37.0431 28.0732 37.0429ZM71.9268 37.0429C66.6976 37.043 62.459 41.2824 62.459 46.5117V69.9326C62.459 75.1617 66.6976 79.4012 71.9268 79.4013C77.156 79.4013 81.3955 75.1618 81.3955 69.9326V46.5117C81.3955 41.2824 77.156 37.0429 71.9268 37.0429Z" fill="url(#paint0_linear_207_789)"/>
<defs>
<linearGradient id="paint0_linear_207_789" x1="50" y1="0" x2="50" y2="116.36" gradientUnits="userSpaceOnUse">
<stop stop-color="#FF9500"/>
<stop offset="1" stop-color="#FFB700"/>
</linearGradient>
</defs>
</svg>
