<svg width="150" height="175" viewBox="0 0 150 175" fill="none" xmlns="http://www.w3.org/2000/svg">
<path d="M144.394 0.0966797C145.303 -0.0967263 146.246 0.00108891 147.104 0.37793C147.961 0.754805 148.693 1.39399 149.209 2.21387C149.724 3.03378 150 3.99802 150 4.98438V132.548C150 137.837 148.024 142.909 144.508 146.649C140.992 150.389 136.223 152.49 131.25 152.49L75.374 174.542L75 174.396L74.626 174.542L18.75 152.49C18.5945 152.49 18.4392 152.488 18.2842 152.484C13.4803 152.358 8.89853 150.272 5.49219 146.649C1.97591 142.909 3.22666e-05 137.837 0 132.548V4.98438C0.000196981 3.99802 0.275516 3.03378 0.791016 2.21387C1.3066 1.39399 2.03948 0.754805 2.89648 0.37793C3.75364 0.00108891 4.69695 -0.0967263 5.60645 0.0966797C6.51596 0.29011 7.35084 0.76639 8.00586 1.46484L34.7529 29.9131C36.5106 31.783 38.8949 32.8333 41.3809 32.834H108.619C111.105 32.8333 113.489 31.783 115.247 29.9131L141.994 1.46484C142.649 0.76639 143.484 0.29011 144.394 0.0966797ZM42.1094 55.5635C34.2655 55.5635 27.9072 61.9227 27.9072 69.7666V104.899C27.9074 112.743 34.2656 119.102 42.1094 119.102C49.9532 119.102 56.3124 112.743 56.3125 104.899V69.7666C56.3125 61.9227 49.9533 55.5635 42.1094 55.5635ZM107.891 55.5635C100.047 55.5635 93.6875 61.9227 93.6875 69.7666V104.899C93.6876 112.743 100.047 119.102 107.891 119.102C115.734 119.101 122.093 112.743 122.093 104.899V69.7666C122.093 61.9228 115.734 55.5636 107.891 55.5635Z" fill="url(#paint0_linear_207_796)"/>
<defs>
<linearGradient id="paint0_linear_207_796" x1="75" y1="0" x2="75" y2="174.542" gradientUnits="userSpaceOnUse">
<stop stop-color="#FF9500"/>
<stop offset="1" stop-color="#FFB700"/>
</linearGradient>
</defs>
</svg>
