<svg width="150" height="175" viewBox="0 0 150 175" fill="none" xmlns="http://www.w3.org/2000/svg">
<path d="M144.394 0.0966797C145.303 -0.0967054 146.246 0.00109844 147.104 0.37793C147.961 0.754799 148.693 1.39396 149.209 2.21387C149.725 3.03375 150 3.99802 150 4.98438V132.549C150 137.838 148.024 142.911 144.508 146.65C140.992 150.39 136.223 152.491 131.25 152.491L75.374 174.543L75 174.396L74.626 174.543L18.75 152.491C18.5945 152.491 18.4392 152.489 18.2842 152.485C13.4804 152.359 8.89851 150.273 5.49219 146.65C1.97599 142.911 0.000128642 137.838 0 132.549V4.98438C0.000247092 3.99802 0.275471 3.03375 0.791016 2.21387C1.30663 1.39396 2.03943 0.754799 2.89648 0.37793C3.75361 0.00109844 4.69698 -0.0967054 5.60645 0.0966797C6.51589 0.290098 7.35086 0.766475 8.00586 1.46484L34.7529 29.9131C36.5106 31.7831 38.8948 32.8343 41.3809 32.835H108.619C111.105 32.8343 113.489 31.7831 115.247 29.9131L141.994 1.46484C142.649 0.766475 143.484 0.290098 144.394 0.0966797ZM42.1094 55.5645C34.2656 55.5647 27.9072 61.9238 27.9072 69.7676V104.9C27.9075 112.744 34.2658 119.102 42.1094 119.103C49.9531 119.103 56.3123 112.744 56.3125 104.9V69.7676C56.3125 61.9237 49.9533 55.5645 42.1094 55.5645ZM107.891 55.5645C100.047 55.5645 93.6875 61.9237 93.6875 69.7676V104.9C93.6877 112.744 100.047 119.103 107.891 119.103C115.734 119.102 122.093 112.744 122.093 104.9V69.7676C122.093 61.9237 115.734 55.5646 107.891 55.5645Z" fill="white"/>
</svg>
