<svg width="100" height="117" viewBox="0 0 100 117" fill="none" xmlns="http://www.w3.org/2000/svg">
<path d="M96.2627 0.0644531C96.8688 -0.0643475 97.4971 0.000924294 98.0684 0.251953C98.6397 0.50316 99.1289 0.929026 99.4727 1.47559C99.8164 2.02223 99.9999 2.6656 100 3.32324V88.3652C99.9999 91.8911 98.6829 95.2724 96.3389 97.7656C93.9947 100.259 90.8152 101.66 87.5 101.66L50.249 116.361L50 116.264L49.751 116.361L12.5 101.66C12.3963 101.66 12.2928 101.659 12.1895 101.656C8.98681 101.572 5.93204 100.181 3.66113 97.7656C1.31715 95.2724 7.24316e-05 91.8911 0 88.3652V3.32324C0.000131337 2.6656 0.183597 2.02223 0.527344 1.47559C0.871108 0.929026 1.36027 0.50316 1.93164 0.251953C2.50285 0.000924294 3.13123 -0.0643475 3.7373 0.0644531C4.34364 0.193408 4.90121 0.510933 5.33789 0.976562L23.1689 19.9424C24.3407 21.1889 25.9306 21.8893 27.5879 21.8896H72.4121C74.0694 21.8893 75.6593 21.1889 76.8311 19.9424L94.6621 0.976562C95.0988 0.510933 95.6564 0.193408 96.2627 0.0644531ZM28.0732 37.043C22.844 37.043 18.6045 41.2824 18.6045 46.5117V69.9326C18.6045 75.1619 22.844 79.4014 28.0732 79.4014C33.3025 79.4013 37.542 75.1619 37.542 69.9326V46.5117C37.542 41.2825 33.3025 37.043 28.0732 37.043ZM71.9268 37.043C66.6976 37.0431 62.459 41.2825 62.459 46.5117V69.9326C62.459 75.1618 66.6976 79.4013 71.9268 79.4014C77.156 79.4014 81.3955 75.1619 81.3955 69.9326V46.5117C81.3955 41.2824 77.156 37.043 71.9268 37.043Z" fill="white"/>
</svg>
