<svg width="50" height="59" viewBox="0 0 50 59" fill="none" xmlns="http://www.w3.org/2000/svg">
<path d="M48.1309 0.0322266C48.4339 -0.0322328 48.7485 0.000442241 49.0342 0.125977C49.3199 0.251597 49.5644 0.464959 49.7363 0.738281C49.9081 1.01156 49.9999 1.33338 50 1.66211V44.1826C50 45.9456 49.341 47.6371 48.1689 48.8838C46.9969 50.1302 45.4074 50.8311 43.75 50.8311L25.125 58.1816L25 58.1328L24.875 58.1816L6.25 50.8311C6.14651 50.8311 6.0433 50.8277 5.94043 50.8223C4.39571 50.7408 2.92994 50.0524 1.83105 48.8838C0.658977 47.6371 2.78454e-05 45.9456 0 44.1826V1.66211C6.56497e-05 1.33338 0.0918923 1.01156 0.263672 0.738281C0.435553 0.464959 0.680112 0.251597 0.96582 0.125977C1.25149 0.000442241 1.56605 -0.0322328 1.86914 0.0322266C2.17221 0.0967387 2.45067 0.255528 2.66895 0.488281L11.584 9.9707C12.1699 10.594 12.9652 10.9451 13.7939 10.9453H36.2061C37.0348 10.9451 37.8301 10.594 38.416 9.9707L47.3311 0.488281C47.5493 0.255528 47.8278 0.0967387 48.1309 0.0322266ZM14.0361 18.5215C11.4217 18.5217 9.30273 20.6414 9.30273 23.2559V34.9668C9.30275 37.5813 11.4217 39.7009 14.0361 39.7012C16.6508 39.7012 18.7705 37.5814 18.7705 34.9668V23.2559C18.7705 20.6412 16.6508 18.5215 14.0361 18.5215ZM35.9639 18.5215C33.3492 18.5215 31.2295 20.6412 31.2295 23.2559V34.9668C31.2295 37.5814 33.3492 39.7012 35.9639 39.7012C38.5783 39.7009 40.6972 37.5813 40.6973 34.9668V23.2559C40.6973 20.6414 38.5783 18.5217 35.9639 18.5215Z" fill="white"/>
</svg>
